<mxfile host="app.diagrams.net" modified="2020-10-19T16:22:18.432Z" agent="5.0 (Windows NT 10.0; Win64; x64) AppleWebKit/537.36 (KHTML, like Gecko) Chrome/86.0.4240.75 Safari/537.36" etag="yl8vJr6zUVtvJ5p0eX2t" version="13.8.0" type="github">
  <diagram id="QvaOprwjs1TWqQh1POpu" name="Page-1">
    <mxGraphModel dx="1038" dy="548" grid="1" gridSize="10" guides="1" tooltips="1" connect="1" arrows="1" fold="1" page="1" pageScale="1" pageWidth="850" pageHeight="1100" math="0" shadow="0">
      <root>
        <mxCell id="0" />
        <mxCell id="1" parent="0" />
        <mxCell id="8pkKy27sDuvCxx8CnEMj-3" value="" style="edgeStyle=orthogonalEdgeStyle;rounded=0;orthogonalLoop=1;jettySize=auto;html=1;" edge="1" parent="1" source="8pkKy27sDuvCxx8CnEMj-1" target="8pkKy27sDuvCxx8CnEMj-2">
          <mxGeometry relative="1" as="geometry" />
        </mxCell>
        <mxCell id="8pkKy27sDuvCxx8CnEMj-1" value="Material App" style="rounded=1;whiteSpace=wrap;html=1;" vertex="1" parent="1">
          <mxGeometry x="380" y="80" width="120" height="60" as="geometry" />
        </mxCell>
        <mxCell id="8pkKy27sDuvCxx8CnEMj-5" value="" style="edgeStyle=orthogonalEdgeStyle;rounded=0;orthogonalLoop=1;jettySize=auto;html=1;" edge="1" parent="1" source="8pkKy27sDuvCxx8CnEMj-2" target="8pkKy27sDuvCxx8CnEMj-4">
          <mxGeometry relative="1" as="geometry" />
        </mxCell>
        <mxCell id="8pkKy27sDuvCxx8CnEMj-7" value="" style="edgeStyle=orthogonalEdgeStyle;rounded=0;orthogonalLoop=1;jettySize=auto;html=1;" edge="1" parent="1" source="8pkKy27sDuvCxx8CnEMj-2" target="8pkKy27sDuvCxx8CnEMj-6">
          <mxGeometry relative="1" as="geometry" />
        </mxCell>
        <mxCell id="8pkKy27sDuvCxx8CnEMj-9" value="" style="edgeStyle=orthogonalEdgeStyle;rounded=0;orthogonalLoop=1;jettySize=auto;html=1;" edge="1" parent="1" source="8pkKy27sDuvCxx8CnEMj-2" target="8pkKy27sDuvCxx8CnEMj-8">
          <mxGeometry relative="1" as="geometry" />
        </mxCell>
        <mxCell id="8pkKy27sDuvCxx8CnEMj-2" value="Scaffold" style="whiteSpace=wrap;html=1;rounded=1;" vertex="1" parent="1">
          <mxGeometry x="380" y="220" width="120" height="60" as="geometry" />
        </mxCell>
        <mxCell id="8pkKy27sDuvCxx8CnEMj-4" value="Color" style="whiteSpace=wrap;html=1;rounded=1;" vertex="1" parent="1">
          <mxGeometry x="160" y="360" width="120" height="60" as="geometry" />
        </mxCell>
        <mxCell id="8pkKy27sDuvCxx8CnEMj-11" value="" style="edgeStyle=orthogonalEdgeStyle;rounded=0;orthogonalLoop=1;jettySize=auto;html=1;" edge="1" parent="1" source="8pkKy27sDuvCxx8CnEMj-6" target="8pkKy27sDuvCxx8CnEMj-10">
          <mxGeometry relative="1" as="geometry" />
        </mxCell>
        <mxCell id="8pkKy27sDuvCxx8CnEMj-6" value="Center" style="whiteSpace=wrap;html=1;rounded=1;" vertex="1" parent="1">
          <mxGeometry x="580" y="360" width="120" height="60" as="geometry" />
        </mxCell>
        <mxCell id="8pkKy27sDuvCxx8CnEMj-15" value="" style="edgeStyle=orthogonalEdgeStyle;rounded=0;orthogonalLoop=1;jettySize=auto;html=1;" edge="1" parent="1" source="8pkKy27sDuvCxx8CnEMj-8" target="8pkKy27sDuvCxx8CnEMj-14">
          <mxGeometry relative="1" as="geometry" />
        </mxCell>
        <mxCell id="8pkKy27sDuvCxx8CnEMj-8" value="Appbar" style="whiteSpace=wrap;html=1;rounded=1;" vertex="1" parent="1">
          <mxGeometry x="380" y="360" width="120" height="60" as="geometry" />
        </mxCell>
        <mxCell id="8pkKy27sDuvCxx8CnEMj-13" value="" style="edgeStyle=orthogonalEdgeStyle;rounded=0;orthogonalLoop=1;jettySize=auto;html=1;" edge="1" parent="1" source="8pkKy27sDuvCxx8CnEMj-10" target="8pkKy27sDuvCxx8CnEMj-12">
          <mxGeometry relative="1" as="geometry" />
        </mxCell>
        <mxCell id="8pkKy27sDuvCxx8CnEMj-10" value="Image" style="whiteSpace=wrap;html=1;rounded=1;" vertex="1" parent="1">
          <mxGeometry x="580" y="500" width="120" height="60" as="geometry" />
        </mxCell>
        <mxCell id="8pkKy27sDuvCxx8CnEMj-12" value="Network Image" style="whiteSpace=wrap;html=1;rounded=1;" vertex="1" parent="1">
          <mxGeometry x="580" y="640" width="120" height="60" as="geometry" />
        </mxCell>
        <mxCell id="8pkKy27sDuvCxx8CnEMj-14" value="Text" style="whiteSpace=wrap;html=1;rounded=1;" vertex="1" parent="1">
          <mxGeometry x="290" y="480" width="120" height="60" as="geometry" />
        </mxCell>
        <mxCell id="8pkKy27sDuvCxx8CnEMj-17" style="edgeStyle=orthogonalEdgeStyle;rounded=0;orthogonalLoop=1;jettySize=auto;html=1;" edge="1" parent="1" source="8pkKy27sDuvCxx8CnEMj-16" target="8pkKy27sDuvCxx8CnEMj-8">
          <mxGeometry relative="1" as="geometry" />
        </mxCell>
        <mxCell id="8pkKy27sDuvCxx8CnEMj-16" value="Cololr" style="whiteSpace=wrap;html=1;rounded=1;" vertex="1" parent="1">
          <mxGeometry x="425" y="480" width="120" height="60" as="geometry" />
        </mxCell>
      </root>
    </mxGraphModel>
  </diagram>
</mxfile>
